<?xml version="1.0" encoding="UTF-8" standalone="no"?>
<svg width="72px" height="65px" viewBox="0 0 72 65" version="1.1" xmlns="http://www.w3.org/2000/svg" xmlns:xlink="http://www.w3.org/1999/xlink">
    <!-- Generator: Sketch 3.6.1 (26313) - http://www.bohemiancoding.com/sketch -->
    <title>consulting</title>
    <desc>Created with Sketch.</desc>
    <defs></defs>
    <g id="Page-1" stroke="none" stroke-width="1" fill="none" fill-rule="evenodd">
        <g id="consulting">
            <path d="M65.558427,39 C65.558427,46.4285714 59.4849438,52.3714286 52.307191,52.3714286 C51.0188764,52.3714286 49.5465169,52.1857143 48.4422472,51.8142857 C50.6507865,47.9142857 51.9391011,43.4571429 51.9391011,38.6285714 C51.9391011,36.4 51.5710112,34.3571429 51.0188764,32.1285714 L50.0986517,33.4285714 C49.9146067,33.6142857 49.7305618,33.8 49.5465169,33.8 C49.9146067,35.4714286 50.0986517,37.1428571 50.0986517,38.8142857 C50.0986517,43.2714286 48.8103371,47.5428571 46.6017978,51.2571429 C42.0006742,49.0285714 38.8719101,44.3857143 38.8719101,39 C38.8719101,38.0714286 38.8719101,37.1428571 39.0559551,36.4 L38.8719101,36.4 C38.3197753,36.4 37.7676404,36.2142857 37.3995506,35.8428571 C37.2155056,36.9571429 37.0314607,37.8857143 37.0314607,39 C37.0314607,44.9428571 40.5283146,50.1428571 45.4975281,52.7428571 C41.0804494,58.8714286 34.0867416,62.7714286 25.988764,62.7714286 C12.7375281,62.7714286 1.8788764,52 1.8788764,38.6285714 C1.8788764,25.2571429 12.7375281,14.4857143 25.988764,14.4857143 C32.0622472,14.4857143 37.5835955,16.7142857 41.8166292,20.4285714 L43.1049438,19.1285714 C38.5038202,15.0428571 32.614382,12.6285714 25.988764,12.6285714 C11.6332584,12.6285714 0.0384269663,24.1428571 0.0384269663,38.6285714 C0.0384269663,53.1142857 11.6332584,64.6285714 25.988764,64.6285714 C34.8229213,64.6285714 42.552809,60.1714286 47.3379775,53.4857143 C48.8103371,54.0428571 50.4667416,54.4142857 52.307191,54.4142857 C60.7732584,54.4142857 67.3988764,47.5428571 67.3988764,39.1857143 C67.3988764,32.8714286 63.7179775,27.4857143 58.3806742,25.2571429 L56.9083146,26.7428571 C61.8775281,28.4142857 65.558427,33.2428571 65.558427,39 L65.558427,39 Z" id="Shape" fill="#20C9B7"></path>
            <path d="M64.6382022,0.742857143 C64.2701124,0.742857143 64.0860674,0.742857143 63.9020225,0.928571429 L40.8964045,24.3285714 L40.8964045,24.3285714 C40.7123596,24.5142857 40.7123596,24.5142857 40.7123596,24.7 L40.7123596,24.7 L37.9516854,33.2428571 C37.7676404,33.6142857 37.9516854,33.9857143 38.1357303,34.1714286 C38.3197753,34.3571429 38.5038202,34.5428571 38.8719101,34.5428571 L39.0559551,34.5428571 L48.2582022,32.3142857 C48.4422472,32.3142857 48.6262921,32.1285714 48.6262921,32.1285714 L71.6319101,8.91428571 C71.8159551,8.72857143 72,8.35714286 71.8159551,8.17142857 L71.8159551,7.98571429 C71.4478652,4.08571429 68.5031461,1.11428571 64.6382022,0.742857143 L64.6382022,0.742857143 Z M41.4485393,31.9428571 C41.2644944,31.5714286 40.8964045,31.2 40.7123596,31.0142857 L42.368764,26 C43.8411236,26.5571429 45.1294382,27.6714286 46.0496629,28.9714286 C46.2337079,29.1571429 46.6017978,29.3428571 46.7858427,29.3428571 C46.9698876,29.3428571 47.1539326,29.3428571 47.3379775,29.1571429 C47.7060674,28.7857143 47.8901124,28.2285714 47.5220225,27.8571429 C46.4177528,26.3714286 44.9453933,25.0714286 43.2889888,24.3285714 L65.0062921,2.41428571 C67.5829213,2.78571429 69.7914607,5.01428571 70.1595506,7.61428571 L47.5220225,30.6428571 L41.4485393,31.9428571 L41.4485393,31.9428571 Z" id="Shape" fill="#00CAAF"></path>
        </g>
    </g>
</svg>