<?xml version="1.0" encoding="UTF-8" standalone="no"?>
<svg width="83px" height="98px" viewBox="0 0 83 98" version="1.1" xmlns="http://www.w3.org/2000/svg" xmlns:xlink="http://www.w3.org/1999/xlink">
    <!-- Generator: Sketch 3.6.1 (26313) - http://www.bohemiancoding.com/sketch -->
    <title>Shape</title>
    <desc>Created with Sketch.</desc>
    <defs></defs>
    <g id="Page-1" stroke="none" stroke-width="1" fill="none" fill-rule="evenodd">
        <path d="M82.1483614,83.8054509 L46.3403614,46.2574509 C49.2993614,4.65745094 44.2783614,1.93245094 42.3853614,0.90645094 C42.3693614,0.89845094 42.3553614,0.89045094 42.3383614,0.88345094 C34.8673614,-2.41554906 7.71236138,4.56545094 6.56136138,4.86445094 C6.30636138,4.92945094 6.11736138,5.14345094 6.08136138,5.40445094 C6.05436138,5.60945094 6.12836138,5.80945094 6.27036138,5.94945094 L24.7323614,25.3024509 L7.28236138,50.2034509 C7.27136138,50.2184509 7.26636138,50.2334509 7.25736138,50.2494509 C7.24836138,50.2674509 7.23736138,50.2834509 7.22936138,50.3024509 C7.21436138,50.3334509 7.20436138,50.3654509 7.19436138,50.3994509 C7.19036138,50.4154509 7.18436138,50.4324509 7.18036138,50.4494509 C7.17936138,50.4554509 7.17636138,50.4594509 7.17536138,50.4644509 L0.00936137666,91.6814509 C-0.0376386233,91.9564509 0.0953613767,92.2294509 0.340361377,92.3634509 C0.437361377,92.4154509 0.542361377,92.4404509 0.648361377,92.4404509 C0.809361377,92.4404509 0.968361377,92.3794509 1.09136138,92.2644509 L15.8053614,78.4834509 L21.4713614,96.9184509 C21.5513614,97.1784509 21.7853614,97.5724509 22.0563614,97.5724509 L22.0903614,97.5724509 C22.3483614,97.5724509 22.5823614,97.2204509 22.6853614,96.9814509 L32.6223614,73.7444509 L47.5403614,91.5664509 C47.6643614,91.7154509 47.8473614,91.7754509 48.0373614,91.7754509 C48.0803614,91.7754509 48.1233614,91.7574509 48.1673614,91.7494509 L81.8103614,84.8954509 C82.0413614,84.8474509 82.2283614,84.6744509 82.2993614,84.4504509 C82.3703614,84.2264509 82.3103614,83.9754509 82.1483614,83.8054509 L82.1483614,83.8054509 Z M48.2853614,90.3904509 L48.1513614,90.2294509 L45.8993614,47.6714509 L66.1673614,68.9234509 L48.4403614,90.3574509 L48.2853614,90.3904509 L48.2853614,90.3904509 Z M34.6103614,65.7564509 L8.57136138,50.8334509 L8.54236138,50.7364509 L8.61436138,50.6554509 L44.7953614,46.7674509 L34.6103614,65.7564509 L34.6103614,65.7564509 Z M31.4243614,21.5004509 C30.8573614,22.8394509 29.6933614,25.3824509 28.9343614,26.2314509 L26.5643614,28.8534509 L24.9283614,27.2814509 L29.8003614,20.3294509 C30.4453614,20.7724509 30.9923614,21.1674509 31.4243614,21.5004509 L31.4243614,21.5004509 Z M45.2013614,43.9654509 C42.5913614,38.4444509 35.9573614,24.6404509 33.5263614,21.6904509 C36.0073614,19.0524509 39.2853614,13.8234509 41.2883614,9.16445094 C43.7343614,12.6774509 45.2133614,17.4664509 45.9273614,20.2714509 C46.0703614,26.6104509 45.8293614,34.5244509 45.2013614,43.9654509 L45.2013614,43.9654509 Z M29.7203614,27.2934509 L44.2833614,45.0574509 C44.5163614,45.5514509 44.7323614,46.0094509 44.9273614,46.4284509 L8.94036138,50.2964509 L29.7203614,27.2934509 L29.7203614,27.2934509 Z M43.7123614,43.8474509 L29.9393614,27.0484509 C30.7933614,26.0584509 31.8823614,23.6974509 32.4433614,22.4114509 C34.3473614,24.5144509 40.3203614,36.7014509 43.7123614,43.8474509 L43.7123614,43.8474509 Z M26.3483614,29.0934509 L14.3613614,42.3624509 L24.7403614,27.5504509 L26.3483614,29.0934509 L26.3483614,29.0934509 Z M7.99136138,53.3344509 L13.5763614,71.3084509 L1.62336138,89.9704509 L7.99136138,53.3344509 L7.99136138,53.3344509 Z M45.0093614,9.02345094 C45.4643614,11.6324509 45.7593614,14.9254509 45.8893614,18.8854509 C45.0653614,15.9724509 43.6263614,11.8864509 41.4393614,8.81445094 C42.3253614,6.69745094 42.9293614,4.72145094 43.0603614,3.18245094 C43.7143614,4.09945094 44.4413614,5.77645094 45.0093614,9.02345094 L45.0093614,9.02345094 Z M41.7923614,2.05845094 C42.0433614,2.19445094 42.3823614,2.38545094 42.7603614,2.80645094 C42.7133614,4.31645094 42.1263614,6.33645094 41.2253614,8.52145094 C41.2033614,8.49145094 41.1813614,8.46045094 41.1603614,8.43145094 C38.6653614,5.12945094 35.6643614,2.94845094 31.5983614,1.51845094 C35.9403614,1.12145094 39.7283614,1.16045094 41.7923614,2.05845094 L41.7923614,2.05845094 Z M30.8023614,1.59545094 C35.1583614,2.99645094 38.3093614,5.19645094 40.9003614,8.62645094 C40.9613614,8.70745094 41.0183614,8.79045094 41.0783614,8.87145094 C39.1083614,13.5114509 35.8073614,18.7884509 33.3123614,21.4464509 C33.3033614,21.4364509 33.2913614,21.4224509 33.2823614,21.4124509 C31.1193614,19.0174509 13.5823614,8.72945094 8.43236138,5.73345094 C12.2473614,4.80345094 22.4053614,2.45145094 30.8023614,1.59545094 L30.8023614,1.59545094 Z M10.3613614,8.36245094 C16.0213614,11.6844509 24.0563614,16.4944509 28.7273614,19.6044509 L25.4903614,24.2224509 L10.3613614,8.36245094 L10.3613614,8.36245094 Z M2.55036138,89.1244509 L13.7013614,71.7124509 L15.3783614,77.1084509 L2.55036138,89.1244509 L2.55036138,89.1244509 Z M22.1873614,94.6584509 L8.71336138,51.2874509 L34.4713614,66.0494509 L22.1873614,94.6584509 L22.1873614,94.6584509 Z M33.1943614,72.3074509 L35.7163614,66.4344509 L45.5933614,48.0204509 L47.8053614,89.8144509 L33.1943614,72.3074509 L33.1943614,72.3074509 Z M48.9463614,90.2564509 L66.3913614,69.1614509 L80.4013614,83.8514509 L48.9463614,90.2564509 L48.9463614,90.2564509 Z" id="Shape" fill="#4990E2"></path>
    </g>
</svg>